<svg width="0" height="0" class="hidden" xmlns="http://www.w3.org/2000/svg" xmlns:xlink="http://www.w3.org/1999/xlink">
  <symbol viewBox="0 0 62 59" id="logo-f2">
    <path fill-rule="evenodd" clip-rule="evenodd" d="M15.338 11.068C6.954 17.155.053 22.176.001 22.225c-.076.073 4.522 14.356 10.701 33.242l.984 3.006h37.85l5.893-18.109c3.24-9.96 5.864-18.133 5.83-18.163-.17-.14-28.796-20.879-29.67-21.493L30.581 0 15.338 11.068zm30.257 1.038c7.865 5.707 14.34 10.41 14.387 10.45.048.039-2.436 7.844-5.52 17.345l-5.607 17.272H12.397l-5.611-17.25C3.7 30.435 1.226 22.621 1.289 22.558c.063-.063 6.675-4.875 14.694-10.694C24.177 5.92 30.723 1.383 30.93 1.508c.201.122 6.8 4.891 14.666 10.599zm-28.925.739c-7.508 5.464-13.7 9.982-13.758 10.042-.06.059 2.27 7.432 5.179 16.384l5.287 16.277h8.329v-1.056c0-.58-.511-7.345-1.134-15.031-.624-7.686-1.135-14.323-1.137-14.748-.004-.77-.016-.773-2.685-.552-3.92.324-3.819.262-3.819 2.338 0 1.747-.023 1.792-1.199 2.284-.983.41-1.603.44-3.445.167-1.235-.183-2.311-.399-2.391-.479-.08-.08-.231-1.162-.335-2.403l-.19-2.258 6.787-1.367c3.732-.752 12.726-2.583 19.985-4.069l13.2-2.7 1.913 1.43c1.052.787 1.882 1.533 1.844 1.657-.037.123-.55.298-1.137.387l-1.07.163-.092 3.169c-.12 4.105-.72 4.17-.72.077v-3.091l-1.38.22c-.76.12-5.546.902-10.635 1.735l-9.254 1.516-.216 1.112c-.118.611-.315 7.949-.436 16.306l-.22 15.193 11.965-.002 11.964-.002 5.286-16.307c2.907-8.97 5.162-16.39 5.01-16.492A6097.44 6097.44 0 0144.389 12.73C36.96 7.322 30.756 2.9 30.602 2.905c-.155.003-6.425 4.476-13.932 9.94zm11.862 12.803c0 .44-.216.65-.666.65-.606 0-.657.17-.569 1.87.087 1.67.177 1.88.848 1.974 1.15.163.787 1.194-.42 1.194-.699 0-1.073-.222-1.372-.813-.578-1.142-.529-3.926.085-4.802.659-.94 2.094-.99 2.094-.073zm2.925 1.3c0 .361-.216.65-.487.65-.38 0-.488.437-.488 1.977 0 2.564-.765 2.528-.913-.042-.055-.964-.25-1.933-.434-2.154-.522-.63-.019-1.08 1.204-1.08.902 0 1.118.125 1.118.65zm2.535-.26c.227.227.39 1.314.39 2.597 0 2.203 0 2.206-.893 2.15-1.237-.076-1.707-.51-1.707-1.578 0-.888.716-1.934 1.323-1.934.167 0 .302-.146.302-.325 0-.178-.365-.325-.812-.325-.79 0-1.038-.316-.596-.758.353-.353 1.573-.247 1.993.173zm1.69.585c0 .65.163.975.488.975.328 0 .487-.328.487-1.002 0-.656.14-.955.407-.868.251.084.443.898.503 2.14.053 1.103.216 2.005.363 2.005.288 0 .668-1.879.674-3.33.003-.779.131-.895.988-.895 1.164 0 1.18.039 1.434 3.494.166 2.271.12 2.681-.299 2.681a.493.493 0 01-.495-.487c0-.303-.306-.488-.812-.488s-.813.185-.813.488c0 .268-.219.487-.487.487s-.488-.287-.488-.64c0-.435-.156-.58-.487-.452-.369.141-.488-.059-.488-.823 0-.68-.159-1.01-.487-1.01-.328 0-.488.328-.488 1.002 0 .657-.14.956-.406.868-.417-.137-.76-3.83-.433-4.68.306-.797.84-.458.84.535zm8.058 1.702l.095 2.514-1.002-.117c-1.273-.148-1.409-.298-1.409-1.55 0-.66.251-1.228.704-1.595.876-.709.89-.954.054-.954-.656 0-.844-.347-.418-.773.127-.127.603-.188 1.056-.135.794.092.828.19.92 2.61zm3.155-.077c0 2.32-.036 2.437-.731 2.412-.557-.02-.732.155-.732.731 0 .457-.193.757-.487.757-.399 0-.488-.553-.488-3.033 0-1.668.084-3.118.188-3.22.103-.104.651-.165 1.219-.136l1.03.052v2.437zm3.087-1.95c0 .358-.139.65-.308.65-.17 0-.353.83-.407 1.843-.138 2.624-.91 2.767-.91.17 0-1.427-.129-1.993-.487-2.13-.268-.103-.488-.411-.488-.685 0-.364.35-.498 1.3-.498 1.084 0 1.3.109 1.3.65zm-10.725 2.113c0 .804.147 1.462.325 1.462.18 0 .325-.658.325-1.462 0-.805-.146-1.463-.325-1.463-.178 0-.325.659-.325 1.463zm6.175-.163c0 .715.147 1.3.325 1.3.18 0 .325-.585.325-1.3 0-.715-.146-1.3-.325-1.3-.178 0-.325.585-.325 1.3zm-12.502.42c-.14.321-.162.675-.05.786.33.33.596-.133.444-.774-.135-.568-.152-.568-.394-.011zm9.603.42c.016.378.093.456.196.197.094-.235.083-.516-.025-.624-.108-.108-.185.084-.171.427zm4.2 3.676c0 1.298.359 1.66 1.651 1.66.509 0 .623.234.623 1.278 0 1.714-.419 2.713-1.346 3.209-.879.47-1.904 2.093-1.904 3.014 0 .785.874.813 1.726.055.63-.562.632-.556.098.487-.37.724-.773 1.056-1.28 1.056-1.584 0-1.965-1.385-.823-2.988l.695-.977-.85-.699c-.698-.573-.866-1.014-.94-2.464-.082-1.646-.033-1.779.724-1.962.684-.167.829-.415.913-1.566.125-1.722.712-1.807.712-.103zm-18.2 1.66c0 .433-.217.65-.65.65-.578 0-.65.216-.65 1.95 0 1.877.03 1.95.836 1.95.621 0 .808.145.727.568-.179.926-1.935.752-2.461-.244-.527-.995-.379-4.282.225-5.01.635-.765 1.972-.673 1.972.135zm11.79.233c-.197.512-1.442.436-1.618-.098-.066-.2.299-.352.837-.352.68 0 .904.13.78.45zm-6.103 3.02c0 2.315-.036 2.433-.731 2.408-.557-.02-.732.155-.732.731 0 .457-.193.757-.487.757-.395 0-.488-.52-.488-2.732 0-2.572-.038-2.722-.65-2.562-.558.146-.65.443-.65 2.11 0 2.594-.77 2.449-.91-.173-.053-1.013-.236-1.843-.406-1.843-.17 0-.309-.212-.309-.472 0-.356.545-.502 2.194-.59 3.427-.181 3.169-.374 3.169 2.367zm3.022-2.214c.215.215.39 1.21.39 2.21 0 1.001-.175 1.996-.39 2.21-1.068 1.069-2.535-.21-2.535-2.21s1.467-3.278 2.535-2.21zm1.717.992l.026 1.056.462-1.056c.254-.581.681-1.057.949-1.057.389 0 .486.49.486 2.438 0 1.95-.097 2.437-.487 2.437-.327 0-.499-.348-.52-1.056l-.034-1.056-.343 1.07c-.225.704-.52 1.036-.86.971-.755-.143-.956-4.804-.207-4.804.344 0 .51.332.528 1.057zm-6.202 1.218c0 .715.147 1.3.325 1.3.18 0 .325-.585.325-1.3 0-.715-.146-1.3-.325-1.3-.178 0-.325.585-.325 1.3zm3.25.163c0 .804.147 1.462.325 1.462.18 0 .325-.658.325-1.462 0-.804-.146-1.463-.325-1.463-.178 0-.325.658-.325 1.463z"></path>
  </symbol>

  <symbol class="home-thumb" fill="none" viewBox="0 0 734 640" id="floors">
    <path fill="url(#a)" d="M0 0h734v640H0z"></path>
    <defs>
      <pattern id="a" patternContentUnits="objectBoundingBox" width="1" height="1">
        <use xlink:href="#b" transform="matrix(.00136 0 0 .00156 -.004 0)"></use>
      </pattern>
    </defs>
    <path data-num="01" d="M219 534.7l220.8 8L509 529v21.7l-68.5 19.7-221.5-11v-24.7z" fill="#3595F6" fill-opacity=".75"></path>
    <path data-num="02" d="M220 533.7v-25l220.3 3.3 69.7-3.3v20l-69.3 13-220.7-8z" fill="#3595F6" fill-opacity=".75"></path>
    <path data-num="03" d="M220 507.7v-25h290v23l-68 7-222-5z" fill="#3595F6" fill-opacity=".75"></path>
    <path data-num="04" d="M220 483.7v-25l221.3-3.7 67.7 6.7v22h-68" fill="#3595F6" fill-opacity=".75"></path>
    <path data-num="05" d="M220 457.7v-26l221.5-3.3 68.5 11v21.3l-69-6.7-221 3.7z" fill="#3595F6" fill-opacity=".75"></path>
    <path data-num="06" d="M219 430.7V407l221-12.3 71 23V439l-71-12.3-221 4z" fill="#3595F6" fill-opacity=".75"></path>
    <path data-num="07" d="M219 408.7v-25l222.2-16.3L511 396v20.7L440.7 395 219 408.7z" fill="#3595F6" fill-opacity=".75"></path>
    <path data-num="08" d="M219 383.7v-25l222.5-20.3L511 375v20.7L439 367l-220 16.7z" fill="#3595F6" fill-opacity=".75"></path>
    <path data-num="09" d="M219 357.7v-24L442 309l69 44v21.7l-69.3-38-222.7 21z" fill="#3595F6" fill-opacity=".75"></path>
    <path data-num="10" d="M219 332.7v-24L441.5 280l69.5 51v20.7l-70.3-42.3L219 332.7z" fill="#3595F6" fill-opacity=".75"></path>
    <path data-num="11" d="M218 308.7v-24l222.3-33L511 311v19.7L441 280l-223 28.7z" fill="#3595F6" fill-opacity=".75"></path>
    <path data-num="12" d="M219 283.7v-24l221.2-35 69.8 64v21l-68.7-58.3L219 283.7z" fill="#3595F6" fill-opacity=".75"></path>
    <path data-num="13" d="M219 259.7v-25l222.3-38L510 267v20.7l-69-64-222 36z" fill="#3595F6" fill-opacity=".75"></path>
    <path data-num="14" d="M219 233.7v-25L439.8 165l70.2 79v22.7l-69-73.3-222 40.3z" fill="#3595F6" fill-opacity=".75"></path>
    <path data-num="15" d="M220 209.7v-25l220-48 70 85v23l-70.7-79.3L220 209.7z" fill="#3595F6" fill-opacity=".75"></path>
    <path data-num="16" d="M219 184.7v-25l219.8-52L510 200v22.7l-69.7-86.3L219 184.7z" fill="#3595F6" fill-opacity=".75"></path>
    <path data-num="17" d="M219 159.7v-26L441 77l69 101.7v21L440.7 108 219 159.7z" fill="#3595F6" fill-opacity=".75"></path>
  </symbol>
</svg>
