<svg xmlns="http://www.w3.org/2000/svg">
<path d="M15.17 5.904v23.083h3.034V.287h-4.469L9.184 23.206 4.469.287H0v28.7h2.788V6.109l4.756 22.837h3.075L15.17 5.904zM24.7 12.997V3.198h8.61V.287H21.502v28.7H33.31v-2.911H24.7V15.867h7.01v-2.87H24.7zM47.88 3.198v25.789h3.197V.287H39.392l-.779 21.73c-.082 2.747-.533 4.1-3.198 4.1v2.911h.533c4.387-.041 5.617-2.624 5.781-7.175l.656-18.655h5.494zM54.248 22.058c0 4.346 2.173 7.216 6.56 7.216 4.428 0 6.601-2.87 6.601-7.216V7.216C67.41 2.829 65.236 0 60.81 0c-4.388 0-6.56 2.829-6.56 7.216v14.842zm3.157-15.006c0-2.583 1.107-4.141 3.403-4.141 2.337 0 3.403 1.558 3.403 4.141v15.17c0 2.624-1.066 4.141-3.403 4.141-2.296 0-3.403-1.517-3.403-4.141V7.052zM87.69 32.923v-6.765h-2.172V.287H73.997L72.89 21.976c-.082 1.763-.287 3.075-1.271 4.182h-1.845v6.765h3.075v-3.936h11.726v3.936h3.116zM76.95 3.198h5.33v22.96h-7.585c.902-.943 1.189-2.173 1.312-4.223l.943-18.737zM101.149 6.15v22.837h2.87V.287h-3.567L95.86 13.776l-2.542 7.913V.287H90.49v28.7h3.321l4.223-13.243 3.116-9.594zM116.942 16.728v12.259h3.198V.287h-6.396c-4.51 0-6.396 2.296-6.396 6.56v2.337c0 3.157 1.107 5.125 3.526 5.904-2.583.779-3.567 2.911-3.567 5.986v4.469c0 1.271-.082 2.46-.574 3.444h3.239c.369-.82.533-1.558.533-3.485v-4.51c0-3.239 1.517-4.264 4.182-4.264h2.255zm0-13.53v10.619h-2.419c-2.501 0-4.018-.82-4.018-3.936V7.134c0-2.583.943-3.936 3.321-3.936h3.116z"/></svg>
